<svg width="200" height="200" viewBox="0 0 200 200" xmlns="http://www.w3.org/2000/svg">
  <rect width="200" height="200" fill="#000000"/>
  <polygon points="100,20 168,60 168,140 100,180 32,140 32,60"
    fill="none" stroke="#ffffff" stroke-width="3"/>
  <polygon points="100,38 152,68 152,132 100,162 48,132 48,68"
    fill="none" stroke="#ffffff" stroke-width="0.8" opacity="0.3"/>
  <text x="100" y="122" text-anchor="middle"
    style="font-family:'JetBrains Mono',monospace;font-size:80px;font-weight:700;fill:#ffffff;">Q</text>
  <line x1="118" y1="128" x2="138" y2="152" stroke="#ffffff" stroke-width="5" stroke-linecap="round"/>
  <circle cx="100" cy="20"  r="4" fill="#ffffff"/>
  <circle cx="168" cy="60"  r="4" fill="#ffffff"/>
  <circle cx="168" cy="140" r="4" fill="#ffffff"/>
  <circle cx="100" cy="180" r="4" fill="#ffffff"/>
  <circle cx="32"  cy="140" r="4" fill="#ffffff"/>
  <circle cx="32"  cy="60"  r="4" fill="#ffffff"/>
  <polygon points="148,28 151,36 159,36 153,41 155,49 148,44 141,49 143,41 137,36 145,36"
    fill="#ffffff"/>
</svg>